<svg width="281" height="320" viewBox="0 0 281 320" fill="none" xmlns="http://www.w3.org/2000/svg">
<path d="M1 50.5286L145.578 2M1 50.5286L67.9122 44.3214M1 50.5286L26.0921 88.9M1 50.5286V83.2571V122.193M145.578 2L280 50.5286M145.578 2L215.478 44.3214M145.578 2L67.9122 44.3214M145.578 2L107.94 88.9M145.578 2L177.242 88.9M280 50.5286L215.478 44.3214M280 50.5286L256.7 88.9M280 50.5286V86.0786V125.014M215.478 44.3214L177.242 88.9M215.478 44.3214L256.7 88.9M67.9122 44.3214L26.0921 88.9M67.9122 44.3214L107.94 88.9M26.0921 88.9L79.2634 118.243M26.0921 88.9L1 122.193M107.94 88.9L145.578 158.871M107.94 88.9L79.2634 118.243M177.242 88.9L204.724 118.243M177.242 88.9L145.578 158.871M256.7 88.9L280 125.014M256.7 88.9L204.724 118.243M280 125.014L177.242 165.079M280 125.014L277.61 157.179L256.7 228.843M280 125.014L204.724 206.271M204.724 118.243L177.242 165.079M145.578 158.871L111.525 165.079M145.578 158.871L177.242 165.079M79.2634 118.243L111.525 165.079M1 122.193L111.525 165.079M1 122.193L79.2634 208.529M1 122.193L26.0921 228.843M111.525 165.079L145.578 176.364M177.242 165.079L145.578 176.364M204.724 206.271L256.7 228.843M204.724 206.271L238.18 258.186M204.724 206.271L145.578 176.364M204.724 206.271L145.578 252.543L79.2634 208.529M204.724 206.271L145.578 318M256.7 228.843L238.18 258.186M238.18 258.186L183.216 306.714L145.578 318M145.578 176.364L79.2634 208.529M79.2634 208.529L26.0921 228.843M79.2634 208.529L47.5996 258.186M79.2634 208.529L145.578 318M26.0921 228.843L47.5996 258.186M47.5996 258.186L106.148 308.407L145.578 318" stroke="#79B4EB" stroke-width="2"/>
</svg>
