<svg width="1440" height="779" viewBox="0 0 1440 779" fill="none" xmlns="http://www.w3.org/2000/svg">
<path d="M-30 157.91L52.3888 230.279M52.3888 230.279L60.051 302.079M52.3888 230.279L-24.1406 212.816L60.051 302.079M52.3888 230.279L160.569 262.519M60.051 302.079L160.569 262.519M60.051 302.079L60.1529 409.927M60.051 302.079L181.887 345.676M60.051 302.079L-16.8164 281.449L-11.8585 327.908L60.1529 409.927M160.569 262.519L181.887 345.676M160.569 262.519L255.96 320.685M60.1529 409.927L62.5765 408.648M60.1529 409.927L195.972 477.662M60.1529 409.927L-4.75967 394.428L0.0855705 439.831L72.262 499.407M181.887 345.676L255.96 320.685M181.887 345.676L62.5765 408.648M181.887 345.676L195.972 477.662M181.887 345.676L277.166 402.787M255.96 320.685L277.166 402.787M255.96 320.685L344.073 368.949M62.5765 408.648L72.262 499.407M72.262 499.407L195.972 477.662M195.972 477.662L277.166 402.787M195.972 477.662L239.094 522.184M195.972 477.662L292.907 482.268M277.166 402.787L292.907 482.268M277.166 402.787L373.358 458.732M277.166 402.787L344.073 368.949M239.094 522.184L292.907 482.268M239.094 522.184L334.778 524.788M292.907 482.268L373.358 458.732M292.907 482.268L386.744 506.427M373.358 458.732L344.073 368.949M373.358 458.732C395.296 434.321 439.376 385.476 440.197 385.389M373.358 458.732L416.422 454.136M344.073 368.949C376.456 374.392 441.017 385.301 440.197 385.389M440.197 385.389L479.87 455.909M440.197 385.389L538.394 382.385M416.422 454.136L386.744 506.427M416.422 454.136L475.048 585.64M416.422 454.136L530.755 485.719M416.422 454.136L479.87 455.909M386.744 506.427L475.048 585.64M386.744 506.427L428.018 669.684M386.744 506.427L334.778 524.788M475.048 585.64C520.434 505.616 524.171 498.525 520.366 504.982L530.755 485.719M475.048 585.64L428.018 669.684M475.048 585.64L523.375 659.508M475.048 585.64L592.411 558.165M530.755 485.719L566.123 438.161M530.755 485.719L639.498 523.238M530.755 485.719L592.411 558.165M479.87 455.909L538.394 382.385M479.87 455.909L566.123 438.161M538.394 382.385L566.123 438.161M538.394 382.385L615.498 395.515M566.123 438.161L615.498 395.515M566.123 438.161L639.498 523.238M566.123 438.161L664.646 447.926M615.498 395.515L669.886 448.446M615.498 395.515L723.723 389.305M669.886 448.446L639.498 523.238M669.886 448.446L759.791 523.216M669.886 448.446L723.723 389.305M669.886 448.446L664.646 447.926M639.498 523.238L592.411 558.165M639.498 523.238L714.608 585.705M639.498 523.238L759.791 523.216M592.411 558.165L523.375 659.508M592.411 558.165L595.247 563.202M334.778 524.788L428.018 669.684M428.018 669.684L503.871 680.812M523.375 659.508L642.316 646.815M523.375 659.508L577.906 687.648M523.375 659.508L503.871 680.812M642.316 646.815L714.608 585.705M642.316 646.815L595.247 563.202M642.316 646.815L756.715 620.724M642.316 646.815L745.38 669.989M642.316 646.815L578.248 687.825M642.316 646.815L678.034 689.991M714.608 585.705L595.247 563.202M714.608 585.705L759.791 523.216M714.608 585.705L756.715 620.724M759.791 523.216L790.551 422.754M759.791 523.216L790.359 488.985M723.723 389.305L790.551 422.754M790.551 422.754L664.646 447.926M790.551 422.754L833.615 418.158M790.551 422.754L837.615 309.873M756.715 620.724L790.359 488.985M756.715 620.724L878.067 591.755M756.715 620.724L873.785 648.811M790.359 488.985L878.067 591.755M790.359 488.985L928.725 522.274M790.359 488.985L833.615 418.158M878.067 591.755L928.725 522.274M878.067 591.755L988.511 538.32M878.067 591.755L938.641 615.192M928.725 522.274L833.615 418.158M928.725 522.274L933.908 376.486M928.725 522.274L997.525 428.432M833.615 418.158L837.615 309.873M833.615 418.158L933.908 376.486M837.615 309.873L933.908 376.486M837.615 309.873L923.541 279.345M933.908 376.486L923.541 279.345M933.908 376.486L978.764 301.217M933.908 376.486L997.525 428.432M923.541 279.345L978.764 301.217M923.541 279.345L997.535 224.46M978.764 301.217L997.525 428.432M978.764 301.217L1058.27 307.683M978.764 301.217L1062.98 274.076M997.525 428.432L988.511 538.32M997.525 428.432L1054.57 447.974M997.525 428.432L1058.27 307.683M988.511 538.32L929.289 527.554M988.511 538.32L1054.57 447.974M988.511 538.32L1082.54 593.428M988.511 538.32L979.216 596.979M1054.57 447.974L1058.27 307.683M1054.57 447.974L1183.07 349.897M1054.57 447.974L1237.91 504.23M1054.57 447.974L1082.54 593.428M1058.27 307.683L1125.43 247.12M1058.27 307.683L1198.71 224.35M1058.27 307.683L1183.07 349.897M1125.43 247.12L1062.98 274.076M1125.43 247.12L1124.82 183.111M1125.43 247.12L1193.52 175.78M1062.98 274.076L997.535 224.46M1062.98 274.076L1060.26 161.167M1062.98 274.076L1124.82 183.111M997.535 224.46L1060.26 161.167M1060.26 161.167L1124.82 183.111M1060.26 161.167L1130.72 112M1124.82 183.111L1189.8 140.935M1124.82 183.111L1130.72 112M1193.52 175.78L1198.71 224.35M1193.52 175.78L1247.61 99.5261M1198.71 224.35L1183.07 349.897M1198.71 224.35L1295.95 260.961M1198.71 224.35L1247.61 99.5261M1183.07 349.897L1295.95 260.961M1183.07 349.897L1237.91 504.23M1183.07 349.897L1368.82 380.265M1295.95 260.961L1368.82 380.265M1295.95 260.961L1461.56 277.461M1295.95 260.961L1381.54 120.474M1295.95 260.961L1247.61 99.5261M1237.91 504.23L1082.54 593.428M1237.91 504.23L1368.82 380.265M1082.54 593.428L979.216 596.979M938.641 615.192L873.785 648.811M938.641 615.192L979.216 596.979M873.785 648.811L745.38 669.989M745.38 669.989L678.034 689.991M745.38 669.989L671.859 709.873M578.248 687.825L671.859 709.873M578.248 687.825L678.034 689.991M578.248 687.825L577.906 687.648M678.034 689.991L671.859 709.873M503.871 680.812L577.906 687.648M1368.82 380.265L1461.56 277.461M1461.56 277.461L1381.54 120.474M1461.56 277.461L1452.97 119.259L1381.54 120.474M1381.54 120.474L1247.61 99.5261M1381.54 120.474L1386.31 38.8041M1381.54 120.474L1440.35 0.99997L1386.31 38.8041M1247.61 99.5261L1386.31 38.8041M1247.61 99.5261L1264.73 65.6611L1386.31 38.8041M1247.61 99.5261L1130.72 112M1247.61 99.5261L1189.8 140.935M1189.8 140.935L1130.72 112" stroke="#010BEE" stroke-opacity="0.12"/>
</svg>
