<svg width="1440" height="1180" viewBox="0 0 1440 1180" fill="none" xmlns="http://www.w3.org/2000/svg">
<path d="M1476.93 1178.23L1423.56 1072.73M1423.56 1072.73L1448.4 1004.92M1423.56 1072.73L1495.93 1126.38L1448.4 1004.92M1423.56 1072.73L1324.72 990.154M1448.4 1004.92L1324.72 990.154M1448.4 1004.92L1497.68 908.759M1448.4 1004.92L1340.42 905.434M1448.4 1004.92L1519.67 1061.57L1535.74 1017.69L1497.68 908.759M1324.72 990.154L1340.42 905.434M1324.72 990.154L1251.18 890.841M1497.68 908.759L1494.55 908.693M1497.68 908.759L1386.07 780.798M1497.68 908.759L1558.75 954.878L1574.46 912.003L1525.94 822.988M1340.42 905.434L1251.18 890.841M1340.42 905.434L1494.55 908.693M1340.42 905.434L1386.07 780.798M1340.42 905.434L1266.52 807.118M1251.18 890.841L1266.52 807.118M1251.18 890.841L1180.76 803.976M1494.55 908.693L1525.94 822.988M1525.94 822.988L1386.07 780.798M1386.07 780.798L1266.52 807.118M1386.07 780.798L1361.18 719.659M1386.07 780.798L1286.39 728.45M1266.52 807.118L1286.39 728.45M1266.52 807.118L1191.12 709.386M1266.52 807.118L1180.76 803.976M1361.18 719.659L1286.39 728.45M1361.18 719.659L1261.89 669.718M1286.39 728.45L1191.12 709.386M1286.39 728.45L1198.91 660.218M1191.12 709.386L1180.76 803.976M1191.12 709.386C1156.91 720.223 1088.24 741.815 1087.34 741.485M1191.12 709.386L1143.79 692.049M1180.76 803.976C1149.24 783.008 1086.44 741.155 1087.34 741.485M1087.34 741.485L1077.98 658.892M1087.34 741.485L982.847 695.291M1143.79 692.049L1198.91 660.218M1143.79 692.049L1142.46 545.675M1143.79 692.049L1038.19 607M1143.79 692.049L1077.98 658.892M1198.91 660.218L1142.46 545.675M1198.91 660.218L1230.33 494.181M1198.91 660.218L1261.89 669.718M1142.46 545.675C1058.15 594.405 1050.97 598.865 1057.93 595.003L1038.19 607M1142.46 545.675L1230.33 494.181M1142.46 545.675L1125.54 455.792M1142.46 545.675L1006.63 511.751M1038.19 607L979.271 631.782M1038.19 607L941.181 519.443M1038.19 607L1006.63 511.751M1077.98 658.892L982.847 695.291M1077.98 658.892L979.271 631.782M982.847 695.291L979.271 631.782M982.847 695.291L907.89 645.215M979.271 631.782L907.89 645.215M979.271 631.782L941.181 519.443M979.271 631.782L880.281 574.046M907.89 645.215L875.016 570.975M907.89 645.215L791.395 596.887M875.016 570.975L941.181 519.443M875.016 570.975L814.847 459.595M875.016 570.975L791.395 596.887M875.016 570.975L880.281 574.046M941.181 519.443L1006.63 511.751M941.181 519.443L890.914 426.391M941.181 519.443L814.847 459.595M1006.63 511.751L1125.54 455.792M1006.63 511.751L1005.95 505.851M1261.89 669.718L1230.33 494.181M1230.33 494.181L1155.77 446.513M1125.54 455.792L994.819 407.909M1125.54 455.792L1081.16 403.574M1125.54 455.792L1155.77 446.513M994.819 407.909L890.914 426.391M994.819 407.909L1005.95 505.851M994.819 407.909L862.734 374.226M994.819 407.909L897.2 335.962M994.819 407.909L1080.88 403.246M994.819 407.909L977.083 351.653M890.914 426.391L1005.95 505.851M890.914 426.391L814.847 459.595M890.914 426.391L862.734 374.226M814.847 459.595L736.535 533.818M814.847 459.595L767.068 474.888M791.395 596.887L736.535 533.818M736.535 533.818L880.281 574.046M736.535 533.818L689.206 516.481M736.535 533.818L635.414 610.995M862.734 374.226L767.068 474.888M862.734 374.226L722.03 339.648M862.734 374.226L752.657 290.93M767.068 474.888L722.03 339.648M767.068 474.888L637.011 376.357M767.068 474.888L689.206 516.481M722.03 339.648L637.011 376.357M722.03 339.648L581.576 332.302M722.03 339.648L669.152 288.613M637.011 376.357L689.206 516.481M637.011 376.357L564.8 503.705M637.011 376.357L521.784 425.749M689.206 516.481L635.414 610.995M689.206 516.481L564.8 503.705M635.414 610.995L564.8 503.705M635.414 610.995L531.198 595.437M564.8 503.705L531.198 595.437M564.8 503.705L483.224 548.461M564.8 503.705L521.784 425.749M531.198 595.437L483.224 548.461M531.198 595.437L428.358 607.524M483.224 548.461L521.784 425.749M483.224 548.461L402.695 503.13M483.224 548.461L382.357 530.737M521.784 425.749L581.576 332.302M521.784 425.749L470.825 379.942M521.784 425.749L402.695 503.13M581.576 332.302L638.837 371.372M581.576 332.302L470.825 379.942M581.576 332.302L508.072 236.393M581.576 332.302L618.203 284.651M470.825 379.942L402.695 503.13M470.825 379.942L290.97 403.398M470.825 379.942L304.063 238.562M470.825 379.942L508.072 236.393M402.695 503.13L304.425 523.676M402.695 503.13L217.049 507.502M402.695 503.13L290.97 403.398M304.425 523.676L382.357 530.737M304.425 523.676L275.749 581.025M304.425 523.676L200.248 553.368M382.357 530.737L428.358 607.524M382.357 530.737L333.499 632.713M382.357 530.737L275.749 581.025M428.358 607.524L333.499 632.713M333.499 632.713L275.749 581.025M333.499 632.713L236.993 641.466M275.749 581.025L188.195 586.272M275.749 581.025L236.993 641.466M200.248 553.368L217.049 507.502M200.248 553.368L108.53 594.409M217.049 507.502L290.97 403.398M217.049 507.502L131.702 426.48M217.049 507.502L108.53 594.409M290.97 403.398L131.702 426.48M290.97 403.398L304.063 238.562M290.97 403.398L109.807 283.885M131.702 426.48L109.807 283.885M131.702 426.48L-34.6563 329.352M131.702 426.48L-22.5299 509.081M131.702 426.48L108.53 594.409M304.063 238.562L508.072 236.393M304.063 238.562L109.807 283.885M508.072 236.393L618.203 284.651M669.152 288.613L752.657 290.93M669.152 288.613L618.203 284.651M752.657 290.93L897.2 335.962M897.2 335.962L977.083 351.653M897.2 335.962L992.673 337.008M1080.88 403.246L992.673 337.008M1080.88 403.246L977.083 351.653M1080.88 403.246L1081.16 403.574M977.083 351.653L992.673 337.008M1155.77 446.513L1081.16 403.574M109.807 283.885L-34.6563 329.352M-34.6563 329.352L-22.5299 509.081M-34.6563 329.352L-98.0926 474.616L-22.5299 509.081M-22.5299 509.081L108.53 594.409M-22.5299 509.081L-64.9379 579.493M-22.5299 509.081L-139 586.29L-64.9379 579.493M108.53 594.409L-64.9379 579.493M108.53 594.409L75.0349 616.066L-64.9379 579.493M108.53 594.409L236.993 641.466M108.53 594.409L188.195 586.272M188.195 586.272L236.993 641.466" stroke="#010BEE" stroke-opacity="0.12"/>
</svg>
